<?xml version="1.0" encoding="utf-8" standalone="no"?>
<!DOCTYPE svg PUBLIC "-//W3C//DTD SVG 1.1//EN"
  "http://www.w3.org/Graphics/SVG/1.1/DTD/svg11.dtd">
<svg xmlns:xlink="http://www.w3.org/1999/xlink" width="460.8pt" height="345.6pt" viewBox="0 0 460.8 345.6" xmlns="http://www.w3.org/2000/svg" version="1.1">
 <metadata>
  <rdf:RDF xmlns:dc="http://purl.org/dc/elements/1.1/" xmlns:cc="http://creativecommons.org/ns#" xmlns:rdf="http://www.w3.org/1999/02/22-rdf-syntax-ns#">
   <cc:Work>
    <dc:type rdf:resource="http://purl.org/dc/dcmitype/StillImage"/>
    <dc:date>2023-11-08T14:29:27.244533</dc:date>
    <dc:format>image/svg+xml</dc:format>
    <dc:creator>
     <cc:Agent>
      <dc:title>Matplotlib v3.5.1, https://matplotlib.org/</dc:title>
     </cc:Agent>
    </dc:creator>
   </cc:Work>
  </rdf:RDF>
 </metadata>
 <defs>
  <style type="text/css">*{stroke-linejoin: round; stroke-linecap: butt}</style>
 </defs>
 <g id="figure_1">
  <g id="patch_1">
   <path d="M 0 345.6 
L 460.8 345.6 
L 460.8 0 
L 0 0 
z
" style="fill: #ffffff"/>
  </g>
  <g id="axes_1">
   <g id="patch_2">
    <path d="M 369.216 174.528 
C 369.216 157.055246 365.774248 139.752393 359.087715 123.609673 
C 352.401182 107.466954 342.599903 92.798303 330.2448 80.4432 
C 317.889697 68.088097 303.221046 58.286818 287.078327 51.600285 
C 270.935607 44.913752 253.632754 41.472 236.16 41.472 
C 218.687246 41.472 201.384393 44.913752 185.241673 51.600285 
C 169.098954 58.286818 154.430303 68.088097 142.0752 80.4432 
C 129.720097 92.798303 119.918818 107.466954 113.232285 123.609673 
C 106.545752 139.752393 103.104 157.055246 103.104 174.528 
C 103.104 192.000754 106.545752 209.303607 113.232285 225.446327 
C 119.918818 241.589046 129.720097 256.257697 142.0752 268.6128 
C 154.430303 280.967903 169.098954 290.769182 185.241673 297.455715 
C 201.384393 304.142248 218.687246 307.584 236.16 307.584 
C 253.632754 307.584 270.935607 304.142248 287.078327 297.455715 
C 303.221046 290.769182 317.889697 280.967903 330.2448 268.6128 
C 342.599903 256.257697 352.401182 241.589046 359.087715 225.446327 
C 365.774248 209.303607 369.216 192.000754 369.216 174.528 
M 236.16 174.528 
C 236.16 174.528 236.16 174.528 236.16 174.528 
C 236.16 174.528 236.16 174.528 236.16 174.528 
C 236.16 174.528 236.16 174.528 236.16 174.528 
C 236.16 174.528 236.16 174.528 236.16 174.528 
C 236.16 174.528 236.16 174.528 236.16 174.528 
C 236.16 174.528 236.16 174.528 236.16 174.528 
C 236.16 174.528 236.16 174.528 236.16 174.528 
C 236.16 174.528 236.16 174.528 236.16 174.528 
C 236.16 174.528 236.16 174.528 236.16 174.528 
C 236.16 174.528 236.16 174.528 236.16 174.528 
C 236.16 174.528 236.16 174.528 236.16 174.528 
C 236.16 174.528 236.16 174.528 236.16 174.528 
C 236.16 174.528 236.16 174.528 236.16 174.528 
C 236.16 174.528 236.16 174.528 236.16 174.528 
C 236.16 174.528 236.16 174.528 236.16 174.528 
C 236.16 174.528 236.16 174.528 236.16 174.528 
M 369.216 174.528 
z
" style="fill: #ffffff"/>
   </g>
   <g id="patch_3">
    <path d="M 236.16 174.528 
C 236.16 174.528 236.16 174.528 236.16 174.528 
C 236.16 174.528 236.16 174.528 236.16 174.528 
L 188.962195 190.40665 
C 188.167891 188.045655 187.551863 185.628382 187.1193 183.175199 
C 186.686738 180.722015 186.438859 178.239828 186.377753 175.749549 
z
" clip-path="url(#p44a7db6d12)" style="fill: #1f77b4; opacity: 0.5; stroke: #000000; stroke-linejoin: miter"/>
   </g>
   <g id="patch_4">
    <path d="M 236.16 174.528 
C 236.16 174.528 236.16 174.528 236.16 174.528 
C 236.16 174.528 236.16 174.528 236.16 174.528 
L 148.961528 244.12359 
C 145.480119 239.761624 142.330912 235.144571 139.540438 230.31133 
C 136.749965 225.478088 134.326084 220.442269 132.289215 215.246296 
z
" clip-path="url(#p44a7db6d12)" style="fill: #1f77b4; opacity: 0.5; stroke: #000000; stroke-linejoin: miter"/>
   </g>
   <g id="patch_5">
    <path d="M 236.16 174.528 
C 236.16 174.528 236.16 174.528 236.16 174.528 
C 236.16 174.528 236.16 174.528 236.16 174.528 
L 189.03675 251.711211 
C 185.175782 249.353945 181.497127 246.710289 178.031779 243.802517 
C 174.56643 240.894744 171.324146 237.731042 168.332242 234.338066 
z
" clip-path="url(#p44a7db6d12)" style="fill: #1f77b4; opacity: 0.5; stroke: #000000; stroke-linejoin: miter"/>
   </g>
   <g id="patch_6">
    <path d="M 236.16 174.528 
C 236.16 174.528 236.16 174.528 236.16 174.528 
C 236.16 174.528 236.16 174.528 236.16 174.528 
L 214.122394 283.766918 
C 208.657889 282.664522 203.283797 281.153648 198.045392 279.247024 
C 192.806988 277.340401 187.719023 275.043398 182.824363 272.375367 
z
" clip-path="url(#p44a7db6d12)" style="fill: #1f77b4; opacity: 0.5; stroke: #000000; stroke-linejoin: miter"/>
   </g>
   <g id="patch_7">
    <path d="M 236.16 174.528 
C 236.16 174.528 236.16 174.528 236.16 174.528 
C 236.16 174.528 236.16 174.528 236.16 174.528 
L 253.766174 291.020864 
C 247.938802 291.901585 242.05355 292.343808 236.16 292.343808 
C 230.26645 292.343808 224.381198 291.901585 218.553826 291.020864 
z
" clip-path="url(#p44a7db6d12)" style="fill: #1f77b4; opacity: 0.5; stroke: #000000; stroke-linejoin: miter"/>
   </g>
   <g id="patch_8">
    <path d="M 236.16 174.528 
C 236.16 174.528 236.16 174.528 236.16 174.528 
C 236.16 174.528 236.16 174.528 236.16 174.528 
L 290.891504 274.936167 
C 285.868744 277.674024 280.64762 280.031143 275.272119 281.987665 
C 269.896619 283.944187 264.381879 285.494603 258.774361 286.625851 
z
" clip-path="url(#p44a7db6d12)" style="fill: #1f77b4; opacity: 0.5; stroke: #000000; stroke-linejoin: miter"/>
   </g>
   <g id="patch_9">
    <path d="M 236.16 174.528 
C 236.16 174.528 236.16 174.528 236.16 174.528 
C 236.16 174.528 236.16 174.528 236.16 174.528 
L 302.001828 232.586886 
C 299.097524 235.88052 295.950171 238.951591 292.586284 241.774227 
C 289.222398 244.596863 285.651451 247.163115 281.903527 249.451363 
z
" clip-path="url(#p44a7db6d12)" style="fill: #1f77b4; opacity: 0.5; stroke: #000000; stroke-linejoin: miter"/>
   </g>
   <g id="patch_10">
    <path d="M 236.16 174.528 
C 236.16 174.528 236.16 174.528 236.16 174.528 
C 236.16 174.528 236.16 174.528 236.16 174.528 
L 341.384444 215.776943 
C 339.321031 221.040631 336.865561 226.142078 334.038722 231.038307 
C 331.211883 235.934536 328.021635 240.611758 324.494855 245.03057 
z
" clip-path="url(#p44a7db6d12)" style="fill: #1f77b4; opacity: 0.5; stroke: #000000; stroke-linejoin: miter"/>
   </g>
   <g id="patch_11">
    <path d="M 236.16 174.528 
C 236.16 174.528 236.16 174.528 236.16 174.528 
C 236.16 174.528 236.16 174.528 236.16 174.528 
L 335.825794 176.973584 
C 335.703457 181.959209 335.207196 186.928633 334.341191 191.839993 
C 333.475186 196.751353 332.241875 201.590816 330.65165 206.317612 
z
" clip-path="url(#p44a7db6d12)" style="fill: #1f77b4; opacity: 0.5; stroke: #000000; stroke-linejoin: miter"/>
   </g>
   <g id="patch_12">
    <path d="M 236.16 174.528 
C 236.16 174.528 236.16 174.528 236.16 174.528 
C 236.16 174.528 236.16 174.528 236.16 174.528 
L 323.578187 145.118098 
C 325.049371 149.491055 326.190358 153.968245 326.991536 158.51195 
C 327.792713 163.055654 328.251825 167.653077 328.365004 172.265488 
z
" clip-path="url(#p44a7db6d12)" style="fill: #1f77b4; opacity: 0.5; stroke: #000000; stroke-linejoin: miter"/>
   </g>
   <g id="patch_13">
    <path d="M 236.16 174.528 
C 236.16 174.528 236.16 174.528 236.16 174.528 
C 236.16 174.528 236.16 174.528 236.16 174.528 
L 311.264396 114.585037 
C 314.262948 118.342016 316.975373 122.318702 319.378819 126.481592 
C 321.782265 130.644483 323.869964 134.981855 325.624327 139.457167 
z
" clip-path="url(#p44a7db6d12)" style="fill: #1f77b4; opacity: 0.5; stroke: #000000; stroke-linejoin: miter"/>
   </g>
   <g id="patch_14">
    <path d="M 236.16 174.528 
C 236.16 174.528 236.16 174.528 236.16 174.528 
C 236.16 174.528 236.16 174.528 236.16 174.528 
L 279.467614 103.594422 
C 283.015954 105.760817 286.396743 108.190412 289.581498 110.862738 
C 292.766252 113.535065 295.746004 116.442597 298.495649 119.560839 
z
" clip-path="url(#p44a7db6d12)" style="fill: #1f77b4; opacity: 0.5; stroke: #000000; stroke-linejoin: miter"/>
   </g>
   <g id="patch_15">
    <path d="M 236.16 174.528 
C 236.16 174.528 236.16 174.528 236.16 174.528 
C 236.16 174.528 236.16 174.528 236.16 174.528 
L 255.212319 80.086951 
C 259.936583 81.040013 264.582683 82.346219 269.111476 83.994565 
C 273.640268 85.642911 278.039 87.628754 282.270614 89.935365 
z
" clip-path="url(#p44a7db6d12)" style="fill: #1f77b4; opacity: 0.5; stroke: #000000; stroke-linejoin: miter"/>
   </g>
   <g id="patch_16">
    <path d="M 236.16 174.528 
C 236.16 174.528 236.16 174.528 236.16 174.528 
C 236.16 174.528 236.16 174.528 236.16 174.528 
L 218.928627 60.515044 
C 224.631946 59.653072 230.391912 59.220262 236.16 59.220262 
C 241.928088 59.220262 247.688054 59.653072 253.391373 60.515044 
z
" clip-path="url(#p44a7db6d12)" style="fill: #1f77b4; opacity: 0.5; stroke: #000000; stroke-linejoin: miter"/>
   </g>
   <g id="patch_17">
    <path d="M 236.16 174.528 
C 236.16 174.528 236.16 174.528 236.16 174.528 
C 236.16 174.528 236.16 174.528 236.16 174.528 
L 175.511106 63.264034 
C 181.076911 60.230169 186.862525 57.618206 192.819207 55.450151 
C 198.775889 53.282096 204.886864 51.564054 211.100649 50.3105 
z
" clip-path="url(#p44a7db6d12)" style="fill: #1f77b4; opacity: 0.5; stroke: #000000; stroke-linejoin: miter"/>
   </g>
   <g id="patch_18">
    <path d="M 236.16 174.528 
C 236.16 174.528 236.16 174.528 236.16 174.528 
C 236.16 174.528 236.16 174.528 236.16 174.528 
L 164.06674 110.956644 
C 167.246797 107.350292 170.69298 103.987634 174.376255 100.897 
C 178.05953 97.806365 181.969524 94.996457 186.073299 92.490949 
z
" clip-path="url(#p44a7db6d12)" style="fill: #1f77b4; opacity: 0.5; stroke: #000000; stroke-linejoin: miter"/>
   </g>
   <g id="patch_19">
    <path d="M 236.16 174.528 
C 236.16 174.528 236.16 174.528 236.16 174.528 
C 236.16 174.528 236.16 174.528 236.16 174.528 
L 118.983174 128.593614 
C 121.280969 122.732027 124.015354 117.05111 127.163292 111.598721 
C 130.31123 106.146333 133.863856 100.937827 137.791241 96.017085 
z
" clip-path="url(#p44a7db6d12)" style="fill: #1f77b4; opacity: 0.5; stroke: #000000; stroke-linejoin: miter"/>
   </g>
   <g id="patch_20">
    <path d="M 236.16 174.528 
C 236.16 174.528 236.16 174.528 236.16 174.528 
C 236.16 174.528 236.16 174.528 236.16 174.528 
L 157.659353 172.601763 
C 157.75571 168.674892 158.146584 164.76078 158.828684 160.892402 
C 159.510783 157.024025 160.482186 153.212276 161.734709 149.489268 
z
" clip-path="url(#p44a7db6d12)" style="fill: #1f77b4; opacity: 0.5; stroke: #000000; stroke-linejoin: miter"/>
   </g>
   <g id="matplotlib.axis_1">
    <g id="xtick_1">
     <g id="line2d_1">
      <path d="M 236.16 174.528 
L 369.216 174.528 
" clip-path="url(#p44a7db6d12)" style="fill: none; stroke: #b0b0b0; stroke-width: 0.8; stroke-linecap: square"/>
     </g>
     <g id="text_1">
      <!-- 0° -->
      <g transform="translate(377.53475 177.287375)scale(0.1 -0.1)">
       <defs>
        <path id="DejaVuSans-30" d="M 2034 4250 
Q 1547 4250 1301 3770 
Q 1056 3291 1056 2328 
Q 1056 1369 1301 889 
Q 1547 409 2034 409 
Q 2525 409 2770 889 
Q 3016 1369 3016 2328 
Q 3016 3291 2770 3770 
Q 2525 4250 2034 4250 
z
M 2034 4750 
Q 2819 4750 3233 4129 
Q 3647 3509 3647 2328 
Q 3647 1150 3233 529 
Q 2819 -91 2034 -91 
Q 1250 -91 836 529 
Q 422 1150 422 2328 
Q 422 3509 836 4129 
Q 1250 4750 2034 4750 
z
" transform="scale(0.015625)"/>
        <path id="DejaVuSans-b0" d="M 1600 4347 
Q 1350 4347 1178 4173 
Q 1006 4000 1006 3750 
Q 1006 3503 1178 3333 
Q 1350 3163 1600 3163 
Q 1850 3163 2022 3333 
Q 2194 3503 2194 3750 
Q 2194 3997 2020 4172 
Q 1847 4347 1600 4347 
z
M 1600 4750 
Q 1800 4750 1984 4673 
Q 2169 4597 2303 4453 
Q 2447 4313 2519 4134 
Q 2591 3956 2591 3750 
Q 2591 3338 2302 3052 
Q 2013 2766 1594 2766 
Q 1172 2766 890 3047 
Q 609 3328 609 3750 
Q 609 4169 896 4459 
Q 1184 4750 1600 4750 
z
" transform="scale(0.015625)"/>
       </defs>
       <use xlink:href="#DejaVuSans-30"/>
       <use xlink:href="#DejaVuSans-b0" x="63.623047"/>
      </g>
     </g>
    </g>
    <g id="xtick_2">
     <g id="line2d_2">
      <path d="M 236.16 174.528 
L 330.2448 80.4432 
" clip-path="url(#p44a7db6d12)" style="fill: none; stroke: #b0b0b0; stroke-width: 0.8; stroke-linecap: square"/>
     </g>
     <g id="text_2">
      <!-- 45° -->
      <g transform="translate(331.281795 73.30308)scale(0.1 -0.1)">
       <defs>
        <path id="DejaVuSans-34" d="M 2419 4116 
L 825 1625 
L 2419 1625 
L 2419 4116 
z
M 2253 4666 
L 3047 4666 
L 3047 1625 
L 3713 1625 
L 3713 1100 
L 3047 1100 
L 3047 0 
L 2419 0 
L 2419 1100 
L 313 1100 
L 313 1709 
L 2253 4666 
z
" transform="scale(0.015625)"/>
        <path id="DejaVuSans-35" d="M 691 4666 
L 3169 4666 
L 3169 4134 
L 1269 4134 
L 1269 2991 
Q 1406 3038 1543 3061 
Q 1681 3084 1819 3084 
Q 2600 3084 3056 2656 
Q 3513 2228 3513 1497 
Q 3513 744 3044 326 
Q 2575 -91 1722 -91 
Q 1428 -91 1123 -41 
Q 819 9 494 109 
L 494 744 
Q 775 591 1075 516 
Q 1375 441 1709 441 
Q 2250 441 2565 725 
Q 2881 1009 2881 1497 
Q 2881 1984 2565 2268 
Q 2250 2553 1709 2553 
Q 1456 2553 1204 2497 
Q 953 2441 691 2322 
L 691 4666 
z
" transform="scale(0.015625)"/>
       </defs>
       <use xlink:href="#DejaVuSans-34"/>
       <use xlink:href="#DejaVuSans-35" x="63.623047"/>
       <use xlink:href="#DejaVuSans-b0" x="127.246094"/>
      </g>
     </g>
    </g>
    <g id="xtick_3">
     <g id="line2d_3">
      <path d="M 236.16 174.528 
L 236.16 41.472 
" clip-path="url(#p44a7db6d12)" style="fill: none; stroke: #b0b0b0; stroke-width: 0.8; stroke-linecap: square"/>
     </g>
     <g id="text_3">
      <!-- 90° -->
      <g transform="translate(227.2975 30.231375)scale(0.1 -0.1)">
       <defs>
        <path id="DejaVuSans-39" d="M 703 97 
L 703 672 
Q 941 559 1184 500 
Q 1428 441 1663 441 
Q 2288 441 2617 861 
Q 2947 1281 2994 2138 
Q 2813 1869 2534 1725 
Q 2256 1581 1919 1581 
Q 1219 1581 811 2004 
Q 403 2428 403 3163 
Q 403 3881 828 4315 
Q 1253 4750 1959 4750 
Q 2769 4750 3195 4129 
Q 3622 3509 3622 2328 
Q 3622 1225 3098 567 
Q 2575 -91 1691 -91 
Q 1453 -91 1209 -44 
Q 966 3 703 97 
z
M 1959 2075 
Q 2384 2075 2632 2365 
Q 2881 2656 2881 3163 
Q 2881 3666 2632 3958 
Q 2384 4250 1959 4250 
Q 1534 4250 1286 3958 
Q 1038 3666 1038 3163 
Q 1038 2656 1286 2365 
Q 1534 2075 1959 2075 
z
" transform="scale(0.015625)"/>
       </defs>
       <use xlink:href="#DejaVuSans-39"/>
       <use xlink:href="#DejaVuSans-30" x="63.623047"/>
       <use xlink:href="#DejaVuSans-b0" x="127.246094"/>
      </g>
     </g>
    </g>
    <g id="xtick_4">
     <g id="line2d_4">
      <path d="M 236.16 174.528 
L 142.0752 80.4432 
" clip-path="url(#p44a7db6d12)" style="fill: none; stroke: #b0b0b0; stroke-width: 0.8; stroke-linecap: square"/>
     </g>
     <g id="text_4">
      <!-- 135° -->
      <g transform="translate(120.131955 73.30308)scale(0.1 -0.1)">
       <defs>
        <path id="DejaVuSans-31" d="M 794 531 
L 1825 531 
L 1825 4091 
L 703 3866 
L 703 4441 
L 1819 4666 
L 2450 4666 
L 2450 531 
L 3481 531 
L 3481 0 
L 794 0 
L 794 531 
z
" transform="scale(0.015625)"/>
        <path id="DejaVuSans-33" d="M 2597 2516 
Q 3050 2419 3304 2112 
Q 3559 1806 3559 1356 
Q 3559 666 3084 287 
Q 2609 -91 1734 -91 
Q 1441 -91 1130 -33 
Q 819 25 488 141 
L 488 750 
Q 750 597 1062 519 
Q 1375 441 1716 441 
Q 2309 441 2620 675 
Q 2931 909 2931 1356 
Q 2931 1769 2642 2001 
Q 2353 2234 1838 2234 
L 1294 2234 
L 1294 2753 
L 1863 2753 
Q 2328 2753 2575 2939 
Q 2822 3125 2822 3475 
Q 2822 3834 2567 4026 
Q 2313 4219 1838 4219 
Q 1578 4219 1281 4162 
Q 984 4106 628 3988 
L 628 4550 
Q 988 4650 1302 4700 
Q 1616 4750 1894 4750 
Q 2613 4750 3031 4423 
Q 3450 4097 3450 3541 
Q 3450 3153 3228 2886 
Q 3006 2619 2597 2516 
z
" transform="scale(0.015625)"/>
       </defs>
       <use xlink:href="#DejaVuSans-31"/>
       <use xlink:href="#DejaVuSans-33" x="63.623047"/>
       <use xlink:href="#DejaVuSans-35" x="127.246094"/>
       <use xlink:href="#DejaVuSans-b0" x="190.869141"/>
      </g>
     </g>
    </g>
    <g id="xtick_5">
     <g id="line2d_5">
      <path d="M 236.16 174.528 
L 103.104 174.528 
" clip-path="url(#p44a7db6d12)" style="fill: none; stroke: #b0b0b0; stroke-width: 0.8; stroke-linecap: square"/>
     </g>
     <g id="text_5">
      <!-- 180° -->
      <g transform="translate(77.06025 177.287375)scale(0.1 -0.1)">
       <defs>
        <path id="DejaVuSans-38" d="M 2034 2216 
Q 1584 2216 1326 1975 
Q 1069 1734 1069 1313 
Q 1069 891 1326 650 
Q 1584 409 2034 409 
Q 2484 409 2743 651 
Q 3003 894 3003 1313 
Q 3003 1734 2745 1975 
Q 2488 2216 2034 2216 
z
M 1403 2484 
Q 997 2584 770 2862 
Q 544 3141 544 3541 
Q 544 4100 942 4425 
Q 1341 4750 2034 4750 
Q 2731 4750 3128 4425 
Q 3525 4100 3525 3541 
Q 3525 3141 3298 2862 
Q 3072 2584 2669 2484 
Q 3125 2378 3379 2068 
Q 3634 1759 3634 1313 
Q 3634 634 3220 271 
Q 2806 -91 2034 -91 
Q 1263 -91 848 271 
Q 434 634 434 1313 
Q 434 1759 690 2068 
Q 947 2378 1403 2484 
z
M 1172 3481 
Q 1172 3119 1398 2916 
Q 1625 2713 2034 2713 
Q 2441 2713 2670 2916 
Q 2900 3119 2900 3481 
Q 2900 3844 2670 4047 
Q 2441 4250 2034 4250 
Q 1625 4250 1398 4047 
Q 1172 3844 1172 3481 
z
" transform="scale(0.015625)"/>
       </defs>
       <use xlink:href="#DejaVuSans-31"/>
       <use xlink:href="#DejaVuSans-38" x="63.623047"/>
       <use xlink:href="#DejaVuSans-30" x="127.246094"/>
       <use xlink:href="#DejaVuSans-b0" x="190.869141"/>
      </g>
     </g>
    </g>
    <g id="xtick_6">
     <g id="line2d_6">
      <path d="M 236.16 174.528 
L 142.0752 268.6128 
" clip-path="url(#p44a7db6d12)" style="fill: none; stroke: #b0b0b0; stroke-width: 0.8; stroke-linecap: square"/>
     </g>
     <g id="text_6">
      <!-- 225° -->
      <g transform="translate(120.131955 281.27167)scale(0.1 -0.1)">
       <defs>
        <path id="DejaVuSans-32" d="M 1228 531 
L 3431 531 
L 3431 0 
L 469 0 
L 469 531 
Q 828 903 1448 1529 
Q 2069 2156 2228 2338 
Q 2531 2678 2651 2914 
Q 2772 3150 2772 3378 
Q 2772 3750 2511 3984 
Q 2250 4219 1831 4219 
Q 1534 4219 1204 4116 
Q 875 4013 500 3803 
L 500 4441 
Q 881 4594 1212 4672 
Q 1544 4750 1819 4750 
Q 2544 4750 2975 4387 
Q 3406 4025 3406 3419 
Q 3406 3131 3298 2873 
Q 3191 2616 2906 2266 
Q 2828 2175 2409 1742 
Q 1991 1309 1228 531 
z
" transform="scale(0.015625)"/>
       </defs>
       <use xlink:href="#DejaVuSans-32"/>
       <use xlink:href="#DejaVuSans-32" x="63.623047"/>
       <use xlink:href="#DejaVuSans-35" x="127.246094"/>
       <use xlink:href="#DejaVuSans-b0" x="190.869141"/>
      </g>
     </g>
    </g>
    <g id="xtick_7">
     <g id="line2d_7">
      <path d="M 236.16 174.528 
L 236.16 307.584 
" clip-path="url(#p44a7db6d12)" style="fill: none; stroke: #b0b0b0; stroke-width: 0.8; stroke-linecap: square"/>
     </g>
     <g id="text_7">
      <!-- 270° -->
      <g transform="translate(224.11625 324.343375)scale(0.1 -0.1)">
       <defs>
        <path id="DejaVuSans-37" d="M 525 4666 
L 3525 4666 
L 3525 4397 
L 1831 0 
L 1172 0 
L 2766 4134 
L 525 4134 
L 525 4666 
z
" transform="scale(0.015625)"/>
       </defs>
       <use xlink:href="#DejaVuSans-32"/>
       <use xlink:href="#DejaVuSans-37" x="63.623047"/>
       <use xlink:href="#DejaVuSans-30" x="127.246094"/>
       <use xlink:href="#DejaVuSans-b0" x="190.869141"/>
      </g>
     </g>
    </g>
    <g id="xtick_8">
     <g id="line2d_8">
      <path d="M 236.16 174.528 
L 330.2448 268.6128 
" clip-path="url(#p44a7db6d12)" style="fill: none; stroke: #b0b0b0; stroke-width: 0.8; stroke-linecap: square"/>
     </g>
     <g id="text_8">
      <!-- 315° -->
      <g transform="translate(328.100545 281.27167)scale(0.1 -0.1)">
       <use xlink:href="#DejaVuSans-33"/>
       <use xlink:href="#DejaVuSans-31" x="63.623047"/>
       <use xlink:href="#DejaVuSans-35" x="127.246094"/>
       <use xlink:href="#DejaVuSans-b0" x="190.869141"/>
      </g>
     </g>
    </g>
   </g>
   <g id="matplotlib.axis_2">
    <g id="ytick_1">
     <g id="line2d_9">
      <path d="M 251.094242 174.528 
C 251.094242 172.566853 250.707939 170.624776 249.957441 168.812913 
C 249.206942 167.00105 248.106844 165.354636 246.720104 163.967896 
C 245.333364 162.581156 243.68695 161.481058 241.875087 160.730559 
C 240.063224 159.980061 238.121147 159.593758 236.16 159.593758 
C 234.198853 159.593758 232.256776 159.980061 230.444913 160.730559 
C 228.63305 161.481058 226.986636 162.581156 225.599896 163.967896 
C 224.213156 165.354636 223.113058 167.00105 222.362559 168.812913 
C 221.612061 170.624776 221.225758 172.566853 221.225758 174.528 
C 221.225758 176.489147 221.612061 178.431224 222.362559 180.243087 
C 223.113058 182.05495 224.213156 183.701364 225.599896 185.088104 
C 226.986636 186.474844 228.63305 187.574942 230.444913 188.325441 
C 232.256776 189.075939 234.198853 189.462242 236.16 189.462242 
C 238.121147 189.462242 240.063224 189.075939 241.875087 188.325441 
C 243.68695 187.574942 245.333364 186.474844 246.720104 185.088104 
C 248.106844 183.701364 249.206942 182.05495 249.957441 180.243087 
C 250.707939 178.431224 251.094242 176.489147 251.094242 174.528 
" clip-path="url(#p44a7db6d12)" style="fill: none; stroke: #b0b0b0; stroke-width: 0.8; stroke-linecap: square"/>
     </g>
     <g id="text_9">
      <!-- 1 -->
      <g transform="translate(249.957441 166.733225)scale(0.1 -0.1)">
       <use xlink:href="#DejaVuSans-31"/>
      </g>
     </g>
    </g>
    <g id="ytick_2">
     <g id="line2d_10">
      <path d="M 266.028485 174.528 
C 266.028485 170.605707 265.255878 166.721552 263.754882 163.097826 
C 262.253885 159.474099 260.053688 156.181272 257.280208 153.407792 
C 254.506728 150.634312 251.213901 148.434115 247.590174 146.933118 
C 243.966448 145.432122 240.082293 144.659515 236.16 144.659515 
C 232.237707 144.659515 228.353552 145.432122 224.729826 146.933118 
C 221.106099 148.434115 217.813272 150.634312 215.039792 153.407792 
C 212.266312 156.181272 210.066115 159.474099 208.565118 163.097826 
C 207.064122 166.721552 206.291515 170.605707 206.291515 174.528 
C 206.291515 178.450293 207.064122 182.334448 208.565118 185.958174 
C 210.066115 189.581901 212.266312 192.874728 215.039792 195.648208 
C 217.813272 198.421688 221.106099 200.621885 224.729826 202.122882 
C 228.353552 203.623878 232.237707 204.396485 236.16 204.396485 
C 240.082293 204.396485 243.966448 203.623878 247.590174 202.122882 
C 251.213901 200.621885 254.506728 198.421688 257.280208 195.648208 
C 260.053688 192.874728 262.253885 189.581901 263.754882 185.958174 
C 265.255878 182.334448 266.028485 178.450293 266.028485 174.528 
" clip-path="url(#p44a7db6d12)" style="fill: none; stroke: #b0b0b0; stroke-width: 0.8; stroke-linecap: square"/>
     </g>
     <g id="text_10">
      <!-- 2 -->
      <g transform="translate(263.754882 161.018138)scale(0.1 -0.1)">
       <use xlink:href="#DejaVuSans-32"/>
      </g>
     </g>
    </g>
    <g id="ytick_3">
     <g id="line2d_11">
      <path d="M 280.962727 174.528 
C 280.962727 168.64456 279.803818 162.818329 277.552322 157.382739 
C 275.300827 151.947149 272.000533 147.007908 267.840312 142.847688 
C 263.680092 138.687467 258.740851 135.387173 253.305261 133.135678 
C 247.869671 130.884182 242.04344 129.725273 236.16 129.725273 
C 230.27656 129.725273 224.450329 130.884182 219.014739 133.135678 
C 213.579149 135.387173 208.639908 138.687467 204.479688 142.847688 
C 200.319467 147.007908 197.019173 151.947149 194.767678 157.382739 
C 192.516182 162.818329 191.357273 168.64456 191.357273 174.528 
C 191.357273 180.41144 192.516182 186.237671 194.767678 191.673261 
C 197.019173 197.108851 200.319467 202.048092 204.479688 206.208312 
C 208.639908 210.368533 213.579149 213.668827 219.014739 215.920322 
C 224.450329 218.171818 230.27656 219.330727 236.16 219.330727 
C 242.04344 219.330727 247.869671 218.171818 253.305261 215.920322 
C 258.740851 213.668827 263.680092 210.368533 267.840312 206.208312 
C 272.000533 202.048092 275.300827 197.108851 277.552322 191.673261 
C 279.803818 186.237671 280.962727 180.41144 280.962727 174.528 
" clip-path="url(#p44a7db6d12)" style="fill: none; stroke: #b0b0b0; stroke-width: 0.8; stroke-linecap: square"/>
     </g>
     <g id="text_11">
      <!-- 3 -->
      <g transform="translate(277.552322 155.303051)scale(0.1 -0.1)">
       <use xlink:href="#DejaVuSans-33"/>
      </g>
     </g>
    </g>
    <g id="ytick_4">
     <g id="line2d_12">
      <path d="M 295.896969 174.528 
C 295.896969 166.683413 294.351757 158.915105 291.349763 151.667652 
C 288.34777 144.420198 283.947377 137.834545 278.400416 132.287584 
C 272.853455 126.740623 266.267802 122.34023 259.020348 119.338237 
C 251.772895 116.336243 244.004587 114.791031 236.16 114.791031 
C 228.315413 114.791031 220.547105 116.336243 213.299652 119.338237 
C 206.052198 122.34023 199.466545 126.740623 193.919584 132.287584 
C 188.372623 137.834545 183.97223 144.420198 180.970237 151.667652 
C 177.968243 158.915105 176.423031 166.683413 176.423031 174.528 
C 176.423031 182.372587 177.968243 190.140895 180.970237 197.388348 
C 183.97223 204.635802 188.372623 211.221455 193.919584 216.768416 
C 199.466545 222.315377 206.052198 226.71577 213.299652 229.717763 
C 220.547105 232.719757 228.315413 234.264969 236.16 234.264969 
C 244.004587 234.264969 251.772895 232.719757 259.020348 229.717763 
C 266.267802 226.71577 272.853455 222.315377 278.400416 216.768416 
C 283.947377 211.221455 288.34777 204.635802 291.349763 197.388348 
C 294.351757 190.140895 295.896969 182.372587 295.896969 174.528 
" clip-path="url(#p44a7db6d12)" style="fill: none; stroke: #b0b0b0; stroke-width: 0.8; stroke-linecap: square"/>
     </g>
     <g id="text_12">
      <!-- 4 -->
      <g transform="translate(291.349763 149.587964)scale(0.1 -0.1)">
       <use xlink:href="#DejaVuSans-34"/>
      </g>
     </g>
    </g>
    <g id="ytick_5">
     <g id="line2d_13">
      <path d="M 310.831212 174.528 
C 310.831212 164.722266 308.899696 155.011881 305.147204 145.952564 
C 301.394712 136.893248 295.894221 128.661181 288.96052 121.72748 
C 282.026819 114.793779 273.794752 109.293288 264.735436 105.540796 
C 255.676119 101.788304 245.965734 99.856788 236.16 99.856788 
C 226.354266 99.856788 216.643881 101.788304 207.584564 105.540796 
C 198.525248 109.293288 190.293181 114.793779 183.35948 121.72748 
C 176.425779 128.661181 170.925288 136.893248 167.172796 145.952564 
C 163.420304 155.011881 161.488788 164.722266 161.488788 174.528 
C 161.488788 184.333734 163.420304 194.044119 167.172796 203.103436 
C 170.925288 212.162752 176.425779 220.394819 183.35948 227.32852 
C 190.293181 234.262221 198.525248 239.762712 207.584564 243.515204 
C 216.643881 247.267696 226.354266 249.199212 236.16 249.199212 
C 245.965734 249.199212 255.676119 247.267696 264.735436 243.515204 
C 273.794752 239.762712 282.026819 234.262221 288.96052 227.32852 
C 295.894221 220.394819 301.394712 212.162752 305.147204 203.103436 
C 308.899696 194.044119 310.831212 184.333734 310.831212 174.528 
" clip-path="url(#p44a7db6d12)" style="fill: none; stroke: #b0b0b0; stroke-width: 0.8; stroke-linecap: square"/>
     </g>
     <g id="text_13">
      <!-- 5 -->
      <g transform="translate(305.147204 143.872877)scale(0.1 -0.1)">
       <use xlink:href="#DejaVuSans-35"/>
      </g>
     </g>
    </g>
    <g id="ytick_6">
     <g id="line2d_14">
      <path d="M 325.765454 174.528 
C 325.765454 162.76112 323.447635 151.108657 318.944645 140.237477 
C 314.441655 129.366297 307.841065 119.487817 299.520624 111.167376 
C 291.200183 102.846935 281.321703 96.246345 270.450523 91.743355 
C 259.579343 87.240365 247.92688 84.922546 236.16 84.922546 
C 224.39312 84.922546 212.740657 87.240365 201.869477 91.743355 
C 190.998297 96.246345 181.119817 102.846935 172.799376 111.167376 
C 164.478935 119.487817 157.878345 129.366297 153.375355 140.237477 
C 148.872365 151.108657 146.554546 162.76112 146.554546 174.528 
C 146.554546 186.29488 148.872365 197.947343 153.375355 208.818523 
C 157.878345 219.689703 164.478935 229.568183 172.799376 237.888624 
C 181.119817 246.209065 190.998297 252.809655 201.869477 257.312645 
C 212.740657 261.815635 224.39312 264.133454 236.16 264.133454 
C 247.92688 264.133454 259.579343 261.815635 270.450523 257.312645 
C 281.321703 252.809655 291.200183 246.209065 299.520624 237.888624 
C 307.841065 229.568183 314.441655 219.689703 318.944645 208.818523 
C 323.447635 197.947343 325.765454 186.29488 325.765454 174.528 
" clip-path="url(#p44a7db6d12)" style="fill: none; stroke: #b0b0b0; stroke-width: 0.8; stroke-linecap: square"/>
     </g>
     <g id="text_14">
      <!-- 6 -->
      <g transform="translate(318.944645 138.15779)scale(0.1 -0.1)">
       <defs>
        <path id="DejaVuSans-36" d="M 2113 2584 
Q 1688 2584 1439 2293 
Q 1191 2003 1191 1497 
Q 1191 994 1439 701 
Q 1688 409 2113 409 
Q 2538 409 2786 701 
Q 3034 994 3034 1497 
Q 3034 2003 2786 2293 
Q 2538 2584 2113 2584 
z
M 3366 4563 
L 3366 3988 
Q 3128 4100 2886 4159 
Q 2644 4219 2406 4219 
Q 1781 4219 1451 3797 
Q 1122 3375 1075 2522 
Q 1259 2794 1537 2939 
Q 1816 3084 2150 3084 
Q 2853 3084 3261 2657 
Q 3669 2231 3669 1497 
Q 3669 778 3244 343 
Q 2819 -91 2113 -91 
Q 1303 -91 875 529 
Q 447 1150 447 2328 
Q 447 3434 972 4092 
Q 1497 4750 2381 4750 
Q 2619 4750 2861 4703 
Q 3103 4656 3366 4563 
z
" transform="scale(0.015625)"/>
       </defs>
       <use xlink:href="#DejaVuSans-36"/>
      </g>
     </g>
    </g>
    <g id="ytick_7">
     <g id="line2d_15">
      <path d="M 340.699696 174.528 
C 340.699696 160.799973 337.995574 147.205433 332.742086 134.52239 
C 327.488597 121.839347 319.787909 110.314453 310.080728 100.607272 
C 300.373547 90.900091 288.848653 83.199403 276.16561 77.945914 
C 263.482567 72.692426 249.888027 69.988304 236.16 69.988304 
C 222.431973 69.988304 208.837433 72.692426 196.15439 77.945914 
C 183.471347 83.199403 171.946453 90.900091 162.239272 100.607272 
C 152.532091 110.314453 144.831403 121.839347 139.577914 134.52239 
C 134.324426 147.205433 131.620304 160.799973 131.620304 174.528 
C 131.620304 188.256027 134.324426 201.850567 139.577914 214.53361 
C 144.831403 227.216653 152.532091 238.741547 162.239272 248.448728 
C 171.946453 258.155909 183.471347 265.856597 196.15439 271.110086 
C 208.837433 276.363574 222.431973 279.067696 236.16 279.067696 
C 249.888027 279.067696 263.482567 276.363574 276.16561 271.110086 
C 288.848653 265.856597 300.373547 258.155909 310.080728 248.448728 
C 319.787909 238.741547 327.488597 227.216653 332.742086 214.53361 
C 337.995574 201.850567 340.699696 188.256027 340.699696 174.528 
" clip-path="url(#p44a7db6d12)" style="fill: none; stroke: #b0b0b0; stroke-width: 0.8; stroke-linecap: square"/>
     </g>
     <g id="text_15">
      <!-- 7 -->
      <g transform="translate(332.742086 132.442703)scale(0.1 -0.1)">
       <use xlink:href="#DejaVuSans-37"/>
      </g>
     </g>
    </g>
    <g id="ytick_8">
     <g id="line2d_16">
      <path d="M 355.633939 174.528 
C 355.633939 158.838826 352.543513 143.30221 346.539527 128.807303 
C 340.53554 114.312396 331.734753 101.141089 320.640832 90.047168 
C 309.546911 78.953247 296.375604 70.15246 281.880697 64.148473 
C 267.38579 58.144487 251.849174 55.054061 236.16 55.054061 
C 220.470826 55.054061 204.93421 58.144487 190.439303 64.148473 
C 175.944396 70.15246 162.773089 78.953247 151.679168 90.047168 
C 140.585247 101.141089 131.78446 114.312396 125.780473 128.807303 
C 119.776487 143.30221 116.686061 158.838826 116.686061 174.528 
C 116.686061 190.217174 119.776487 205.75379 125.780473 220.248697 
C 131.78446 234.743604 140.585247 247.914911 151.679168 259.008832 
C 162.773089 270.102753 175.944396 278.90354 190.439303 284.907527 
C 204.93421 290.911513 220.470826 294.001939 236.16 294.001939 
C 251.849174 294.001939 267.38579 290.911513 281.880697 284.907527 
C 296.375604 278.90354 309.546911 270.102753 320.640832 259.008832 
C 331.734753 247.914911 340.53554 234.743604 346.539527 220.248697 
C 352.543513 205.75379 355.633939 190.217174 355.633939 174.528 
" clip-path="url(#p44a7db6d12)" style="fill: none; stroke: #b0b0b0; stroke-width: 0.8; stroke-linecap: square"/>
     </g>
     <g id="text_16">
      <!-- 8 -->
      <g transform="translate(346.539527 126.727616)scale(0.1 -0.1)">
       <use xlink:href="#DejaVuSans-38"/>
      </g>
     </g>
    </g>
   </g>
   <g id="patch_21">
    <path d="M 369.216 174.528 
C 369.216 157.055246 365.774248 139.752393 359.087715 123.609673 
C 352.401182 107.466954 342.599903 92.798303 330.2448 80.4432 
C 317.889697 68.088097 303.221046 58.286818 287.078327 51.600285 
C 270.935607 44.913752 253.632754 41.472 236.16 41.472 
C 218.687246 41.472 201.384393 44.913752 185.241673 51.600285 
C 169.098954 58.286818 154.430303 68.088097 142.0752 80.4432 
C 129.720097 92.798303 119.918818 107.466954 113.232285 123.609673 
C 106.545752 139.752393 103.104 157.055246 103.104 174.528 
C 103.104 192.000754 106.545752 209.303607 113.232285 225.446327 
C 119.918818 241.589046 129.720097 256.257697 142.0752 268.6128 
C 154.430303 280.967903 169.098954 290.769182 185.241673 297.455715 
C 201.384393 304.142248 218.687246 307.584 236.16 307.584 
C 253.632754 307.584 270.935607 304.142248 287.078327 297.455715 
C 303.221046 290.769182 317.889697 280.967903 330.2448 268.6128 
C 342.599903 256.257697 352.401182 241.589046 359.087715 225.446327 
C 365.774248 209.303607 369.216 192.000754 369.216 174.528 
" style="fill: none; stroke: #000000; stroke-width: 0.8; stroke-linejoin: miter; stroke-linecap: square"/>
   </g>
  </g>
 </g>
 <defs>
  <clipPath id="p44a7db6d12">
   <path d="M 369.216 174.528 
C 369.216 157.055246 365.774248 139.752393 359.087715 123.609673 
C 352.401182 107.466954 342.599903 92.798303 330.2448 80.4432 
C 317.889697 68.088097 303.221046 58.286818 287.078327 51.600285 
C 270.935607 44.913752 253.632754 41.472 236.16 41.472 
C 218.687246 41.472 201.384393 44.913752 185.241673 51.600285 
C 169.098954 58.286818 154.430303 68.088097 142.0752 80.4432 
C 129.720097 92.798303 119.918818 107.466954 113.232285 123.609673 
C 106.545752 139.752393 103.104 157.055246 103.104 174.528 
C 103.104 192.000754 106.545752 209.303607 113.232285 225.446327 
C 119.918818 241.589046 129.720097 256.257697 142.0752 268.6128 
C 154.430303 280.967903 169.098954 290.769182 185.241673 297.455715 
C 201.384393 304.142248 218.687246 307.584 236.16 307.584 
C 253.632754 307.584 270.935607 304.142248 287.078327 297.455715 
C 303.221046 290.769182 317.889697 280.967903 330.2448 268.6128 
C 342.599903 256.257697 352.401182 241.589046 359.087715 225.446327 
C 365.774248 209.303607 369.216 192.000754 369.216 174.528 
M 236.16 174.528 
C 236.16 174.528 236.16 174.528 236.16 174.528 
C 236.16 174.528 236.16 174.528 236.16 174.528 
C 236.16 174.528 236.16 174.528 236.16 174.528 
C 236.16 174.528 236.16 174.528 236.16 174.528 
C 236.16 174.528 236.16 174.528 236.16 174.528 
C 236.16 174.528 236.16 174.528 236.16 174.528 
C 236.16 174.528 236.16 174.528 236.16 174.528 
C 236.16 174.528 236.16 174.528 236.16 174.528 
C 236.16 174.528 236.16 174.528 236.16 174.528 
C 236.16 174.528 236.16 174.528 236.16 174.528 
C 236.16 174.528 236.16 174.528 236.16 174.528 
C 236.16 174.528 236.16 174.528 236.16 174.528 
C 236.16 174.528 236.16 174.528 236.16 174.528 
C 236.16 174.528 236.16 174.528 236.16 174.528 
C 236.16 174.528 236.16 174.528 236.16 174.528 
C 236.16 174.528 236.16 174.528 236.16 174.528 
M 369.216 174.528 
z
"/>
  </clipPath>
 </defs>
</svg>
